<svg width="62" height="23" viewBox="0 0 62 23" fill="none" xmlns="http://www.w3.org/2000/svg">
<path d="M0.92395 14.1399C0.92395 12.5719 1.23195 11.1812 1.84795 9.9679C2.48262 8.75457 3.33195 7.82123 4.39595 7.1679C5.47862 6.51457 6.68262 6.1879 8.00795 6.1879C9.16528 6.1879 10.1733 6.42124 11.032 6.8879C11.9093 7.35457 12.6093 7.94257 13.132 8.6519V6.4399H17.08V21.9519H13.132V19.6839C12.628 20.4119 11.928 21.0186 11.032 21.5039C10.1546 21.9706 9.13728 22.2039 7.97995 22.2039C6.67328 22.2039 5.47862 21.8679 4.39595 21.1959C3.33195 20.5239 2.48262 19.5812 1.84795 18.3679C1.23195 17.1359 0.92395 15.7266 0.92395 14.1399ZM13.132 14.1959C13.132 13.2439 12.9453 12.4319 12.572 11.7599C12.1986 11.0692 11.6946 10.5466 11.06 10.1919C10.4253 9.81857 9.74395 9.6319 9.01595 9.6319C8.28795 9.6319 7.61595 9.80924 6.99995 10.1639C6.38395 10.5186 5.87995 11.0412 5.48795 11.7319C5.11462 12.4039 4.92795 13.2066 4.92795 14.1399C4.92795 15.0732 5.11462 15.8946 5.48795 16.6039C5.87995 17.2946 6.38395 17.8266 6.99995 18.1999C7.63462 18.5732 8.30662 18.7599 9.01595 18.7599C9.74395 18.7599 10.4253 18.5826 11.06 18.2279C11.6946 17.8546 12.1986 17.3319 12.572 16.6599C12.9453 15.9692 13.132 15.1479 13.132 14.1959Z" fill="#070F18"/>
<path d="M24.8285 8.7079C25.3325 7.96123 26.0232 7.35457 26.9005 6.8879C27.7965 6.42124 28.8138 6.1879 29.9525 6.1879C31.2778 6.1879 32.4725 6.51457 33.5365 7.1679C34.6192 7.82123 35.4685 8.75457 36.0845 9.9679C36.7192 11.1626 37.0365 12.5532 37.0365 14.1399C37.0365 15.7266 36.7192 17.1359 36.0845 18.3679C35.4685 19.5812 34.6192 20.5239 33.5365 21.1959C32.4725 21.8679 31.2778 22.2039 29.9525 22.2039C28.7952 22.2039 27.7778 21.9799 26.9005 21.5319C26.0418 21.0652 25.3512 20.4679 24.8285 19.7399V21.9519H20.9085V1.2319H24.8285V8.7079ZM33.0325 14.1399C33.0325 13.2066 32.8365 12.4039 32.4445 11.7319C32.0712 11.0412 31.5672 10.5186 30.9325 10.1639C30.3165 9.80924 29.6445 9.6319 28.9165 9.6319C28.2072 9.6319 27.5352 9.81857 26.9005 10.1919C26.2845 10.5466 25.7805 11.0692 25.3885 11.7599C25.0152 12.4506 24.8285 13.2626 24.8285 14.1959C24.8285 15.1292 25.0152 15.9412 25.3885 16.6319C25.7805 17.3226 26.2845 17.8546 26.9005 18.2279C27.5352 18.5826 28.2072 18.7599 28.9165 18.7599C29.6445 18.7599 30.3165 18.5732 30.9325 18.1999C31.5672 17.8266 32.0712 17.2946 32.4445 16.6039C32.8365 15.9132 33.0325 15.0919 33.0325 14.1399Z" fill="#070F18"/>
<path d="M38.8771 14.1959C38.8771 12.5906 39.2037 11.1906 39.8571 9.9959C40.5104 8.78257 41.4157 7.84924 42.5731 7.1959C43.7304 6.5239 45.0557 6.1879 46.5491 6.1879C48.4717 6.1879 50.0584 6.67324 51.3091 7.6439C52.5784 8.5959 53.4277 9.9399 53.8571 11.6759H49.6291C49.4051 11.0039 49.0224 10.4812 48.4811 10.1079C47.9584 9.7159 47.3051 9.5199 46.5211 9.5199C45.4011 9.5199 44.5144 9.93057 43.8611 10.7519C43.2077 11.5546 42.8811 12.7026 42.8811 14.1959C42.8811 15.6706 43.2077 16.8186 43.8611 17.6399C44.5144 18.4426 45.4011 18.8439 46.5211 18.8439C48.1077 18.8439 49.1437 18.1346 49.6291 16.7159H53.8571C53.4277 18.3959 52.5784 19.7306 51.3091 20.7199C50.0397 21.7092 48.4531 22.2039 46.5491 22.2039C45.0557 22.2039 43.7304 21.8772 42.5731 21.2239C41.4157 20.5519 40.5104 19.6186 39.8571 18.4239C39.2037 17.2106 38.8771 15.8012 38.8771 14.1959Z" fill="#070F18"/>
<path d="M58.7168 4.5919C58.0262 4.5919 57.4475 4.37724 56.9808 3.9479C56.5328 3.4999 56.3088 2.94923 56.3088 2.2959C56.3088 1.64257 56.5328 1.10123 56.9808 0.671901C57.4475 0.223901 58.0262 -9.91821e-05 58.7168 -9.91821e-05C59.4075 -9.91821e-05 59.9768 0.223901 60.4248 0.671901C60.8915 1.10123 61.1248 1.64257 61.1248 2.2959C61.1248 2.94923 60.8915 3.4999 60.4248 3.9479C59.9768 4.37724 59.4075 4.5919 58.7168 4.5919ZM60.6488 6.4399V21.9519H56.7288V6.4399H60.6488Z" fill="#070F18"/>
</svg>
