<svg width="40" height="19" viewBox="0 0 40 19" fill="none" xmlns="http://www.w3.org/2000/svg">
<path fill-rule="evenodd" clip-rule="evenodd" d="M28.9735 1.34878C29.0979 1.23296 29.2457 1.14107 29.4083 1.07837C29.571 1.01567 29.7454 0.983398 29.9215 0.983398C30.0977 0.983398 30.272 1.01567 30.4347 1.07837C30.5974 1.14107 30.7452 1.23296 30.8695 1.34878L38.9035 8.81085C39.0282 8.92638 39.1271 9.06362 39.1946 9.21472C39.2621 9.36581 39.2969 9.52779 39.2969 9.69138C39.2969 9.85497 39.2621 10.0169 39.1946 10.168C39.1271 10.3191 39.0282 10.4564 38.9035 10.5719L30.8695 18.034C30.6181 18.2675 30.2771 18.3987 29.9215 18.3987C29.566 18.3987 29.2249 18.2675 28.9735 18.034C28.7221 17.8005 28.5808 17.4837 28.5808 17.1535C28.5808 16.8232 28.7221 16.5065 28.9735 16.2729L36.0622 9.69138L28.9735 3.10983C28.8488 2.9943 28.7499 2.85706 28.6824 2.70596C28.6149 2.55487 28.5801 2.39289 28.5801 2.2293C28.5801 2.06571 28.6149 1.90373 28.6824 1.75264C28.7499 1.60154 28.8488 1.4643 28.9735 1.34878Z" fill="black"/>
<path fill-rule="evenodd" clip-rule="evenodd" d="M0.5 9.69143C0.5 9.36159 0.641073 9.04525 0.892183 8.81202C1.14329 8.57878 1.48387 8.44775 1.83899 8.44775H36.6166C36.9718 8.44775 37.3123 8.57878 37.5635 8.81202C37.8146 9.04525 37.9556 9.36159 37.9556 9.69143C37.9556 10.0213 37.8146 10.3376 37.5635 10.5708C37.3123 10.8041 36.9718 10.9351 36.6166 10.9351H1.83899C1.48387 10.9351 1.14329 10.8041 0.892183 10.5708C0.641073 10.3376 0.5 10.0213 0.5 9.69143Z" fill="black"/>
</svg>
